<?xml version="1.0" standalone="no"?>
<!DOCTYPE svg PUBLIC "-//W3C//DTD SVG 20010904//EN"
 "http://www.w3.org/TR/2001/REC-SVG-20010904/DTD/svg10.dtd">
<svg version="1.0" xmlns="http://www.w3.org/2000/svg"
 width="260.000000pt" height="260.000000pt" viewBox="0 0 260.000000 260.000000"
 preserveAspectRatio="xMidYMid meet">
<metadata>
Created by potrace 1.11, written by Peter Selinger 2001-2013
</metadata>
<g transform="translate(0.000000,260.000000) scale(0.100000,-0.100000)"
fill="#000000" stroke="none">
<path d="M1179 2486 c-2 -2 -24 -6 -49 -9 -295 -35 -611 -220 -791 -464 -110
-148 -191 -336 -223 -518 -14 -81 -15 -300 -1 -380 86 -492 496 -889 998 -965
325 -49 653 36 923 241 36 27 68 49 72 49 4 0 23 -15 42 -33 19 -18 85 -77
145 -132 61 -54 128 -116 150 -137 l40 -38 3 647 c2 403 -1 671 -7 708 -6 33
-13 77 -17 99 -3 21 -17 72 -30 113 -134 410 -465 707 -893 799 -67 15 -351
31 -362 20z m331 -396 c263 -74 476 -273 558 -520 51 -153 57 -300 18 -451
-60 -236 -213 -423 -431 -525 -119 -56 -207 -77 -335 -79 -138 -4 -251 20
-372 77 -174 83 -298 205 -383 377 -68 137 -96 318 -73 466 52 338 317 605
663 670 96 18 261 11 355 -15z"/>
<path d="M1240 1708 c-166 -19 -317 -157 -345 -318 -33 -182 51 -352 216 -435
69 -36 88 -39 195 -40 85 0 95 3 166 38 148 73 231 204 230 362 -1 150 -88
288 -227 355 -73 36 -148 48 -235 38z"/>
</g>
</svg>
