<svg xmlns="http://www.w3.org/2000/svg" viewBox="0 0 125.54 38.4">
  <path d="M67.51,27H71.2V13.57H67.51Zm3.7-18.56h-3.7v3h3.7Zm3,18.56h3.69v-7.8c0-2.62,1.77-3.09,2.5-3.09,2.34,0,2.24,1.79,2.24,3.35V27h3.69V19.53c0-1.69.39-3.41,2.47-3.41s2.26,1.48,2.26,3.28V27h3.69V18c0-3.48-2.05-4.81-4.91-4.81a4.89,4.89,0,0,0-4.06,2.24,4,4,0,0,0-3.93-2.23,4.84,4.84,0,0,0-4.1,2.18H77.7V13.57H74.22Zm24.26,0h3.69V16h2.55V13.57h-2.55v-.8c0-1.12.42-1.54,1.4-1.54a12.22,12.22,0,0,1,1.35.08V8.55c-.62,0-1.3-.1-2-.1-3,0-4.5,1.72-4.5,4.08v1H96.26V16h2.22Zm20.46-13.44h-3.69v7c0,2.73-.86,3.85-2.86,3.85-1.72,0-2.37-1.09-2.37-3.3V13.57h-3.69v8.27c0,3.33,1,5.54,4.92,5.54a4.77,4.77,0,0,0,4.1-2.24h.08V27h3.51V13.57ZM121.85,27h3.69V8.45h-3.69Z"/>
  <path d="M55.05,8.72h4.12L66,27H61.84l-1.39-4.07H53.61L52.18,27H48.1Zm-.39,11.22H59.4l-2.3-6.71h-.05Z"/>
  <path style="fill: #e33e11;" d="M25.31,18.94a6.46,6.46,0,1,1-6.46-6.45h0a6.45,6.45,0,0,1,6.45,6.45Z"/>
  <path d="M37.73,18.94A19,19,0,0,0,25.63,1.23h0A18.86,18.86,0,0,0,1.31,12.17,19,19,0,0,0,.12,21.11h0A18.86,18.86,0,0,0,28,35.44l.24-.15c.4-.23.79-.45,1.17-.71a19.06,19.06,0,0,0,2.24-1.76l6.08,5.58ZM26.09,29.65A12.92,12.92,0,1,1,18.86,6h0a12.92,12.92,0,0,1,7.23,23.64Z"/>
</svg>